<svg  width="164" height="50" xmlns="http://www.w3.org/2000/svg" viewBox="0 0 164 50" fill="none"><path d="M5740 10244c-1511-135-2722-1271-2941-2759-129-878 104-1752 657-2465 106-138 382-417 514-522 404-320 863-540 1340-642 970-207 1939 22 2720 643 138 109 410 386 520 529 251 326 435 680 549 1062 262 874 140 1825-334 2605-450 740-1202 1284-2035 1473-255 58-389 73-680 77-146 1-285 1-310-1zm1140-2476c0-1426-6-1698-35-1870-92-534-329-891-723-1088-271-135-639-178-1062-124-109 14-311 52-319 60-4 4 26 371 39 477 10 76 39 126 92 153 39 20 137 20 233 0 112-23 203-28 309-16 192 20 339 86 431 192 50 59 121 206 145 303 49 195 50 215 50 1827l0 1508 420 0 420 0 0-1422zM4414 2845c-126-27-254-117-325-226-103-162-115-404-28-587 42-88 140-187 229-230 165-81 369-81 535-1 294 144 380 573 171 858-116 158-357 235-582 186zm255-177c41-11 121-62 149-97 51-63 82-166 82-271 0-234-133-380-345-380-136 0-233 56-293 168-60 113-66 283-13 402 70 158 231 226 420 178zM3330 2481c0-376-6-457-38-500-41-55-67-66-162-66-49 0-93-4-99-10-5-5-13-40-17-77l-7-66 59-12c36-8 90-10 138-6 151 11 249 82 299 213 21 56 22 73 25 476l3 417-101 0-100 0 0-369zM5590 2301l0-551 209 0c115 0 245 5 288 11 190 26 302 131 311 292 8 127-47 209-167 250l-45 15 35 17c126 65 173 172 137 313-18 72-95 144-184 173-62 20-93 23-326 27l-258 4 0-551zm465 378c140-35 147-244 8-290-18-6-86-11-151-12l-117-2-3 158-3 157 111 0c61 0 131-5 155-11zm76-477c96-59 88-205-14-262-39-22-53-24-182-25l-140 0-3 158-3 159 153-4c138-3 157-5 189-26zM6890 2301l0-551 209 0c115 0 245 5 288 11 96 13 189 56 233 106 96 109 105 287 17 370-34 33-107 73-132 73-24 0-17 17 11 24 44 11 131 105 144 156 25 95-7 208-78 270-81 72-136 83-434 88l-258 4 0-551zm498 366c47-25 72-72 72-132 0-114-65-156-248-158l-117-2-3 158-3 159 133-4c103-3 140-8 166-21zm3-448c111-37 141-177 56-256-45-40-113-55-248-51l-104 3-3 158-3 157 134 0c74 0 149-5 168-11zM8068 2818c11-18 102-170 201-337l181-305 0-213 0-214 103 3 102 3 5 220 5 220 189 315c104 173 191 321 193 328 4 9-19 12-95 12-80 0-104-3-121-17-21-19-228-390-257-463l-17-41-62 118c-108 206-198 366-217 385-15 15-34 18-124 18l-106 0 20-32z" transform="matrix(.1 0 0 -.1 0 1200)" fill="#0030a1" class="color000 svgShape"></path></svg>